<?xml version="1.0" standalone="no"?><!DOCTYPE svg PUBLIC "-//W3C//DTD SVG 1.1//EN" "http://www.w3.org/Graphics/SVG/1.1/DTD/svg11.dtd"><svg t="1557907765961" class="icon" style="" viewBox="0 0 1056 1024" version="1.1" xmlns="http://www.w3.org/2000/svg" p-id="852" xmlns:xlink="http://www.w3.org/1999/xlink" width="309.375" height="300"><defs><style type="text/css"></style></defs><path d="M1046.469259 471.904608l-495.004834-462.004511a33.000322 33.000322 0 0 0-46.530454 0l-495.004834 462.004511a33.000322 33.000322 0 0 0 0 47.190461 33.000322 33.000322 0 0 0 47.520464 0L99.030007 480.154689V891.008701a132.001289 132.001289 0 0 0 132.001289 132.001289h594.005801a132.001289 132.001289 0 0 0 132.001289-132.001289V480.154689l41.910409 39.270384a33.594328 33.594328 0 1 0 47.520464-47.520465zM627.035163 957.009346h-231.002255v-194.041895A37.290364 37.290364 0 0 1 434.313281 726.00709h154.441509A36.960361 36.960361 0 0 1 627.035163 762.967451z m264.002579-99.000967a99.000967 99.000967 0 0 1-99.000967 99.000967h-99.000967v-243.872382A54.120529 54.120529 0 0 0 637.265263 660.006445h-251.462455A54.120529 54.120529 0 0 0 330.032263 713.136964V957.009346H264.031618a99.000967 99.000967 0 0 1-99.000966-99.000967V418.77409L528.034197 79.530777l363.003545 338.913309zM495.033874 330.003223v66.000644h-66.000644a33.000322 33.000322 0 0 0 0 66.000645h66.000644v66.000644a33.000322 33.000322 0 0 0 66.000645 0v-66.000644h66.000644a33.000322 33.000322 0 0 0 0-66.000645h-66.000644v-66.000644a33.000322 33.000322 0 0 0-66.000645 0z" fill="#d0d0d0" p-id="853"></path></svg>