<?xml version="1.0" standalone="no"?><!DOCTYPE svg PUBLIC "-//W3C//DTD SVG 1.1//EN" "http://www.w3.org/Graphics/SVG/1.1/DTD/svg11.dtd"><svg class="icon" width="55px" height="55.00px" viewBox="0 0 1024 1024" version="1.1" xmlns="http://www.w3.org/2000/svg"><path fill="#bfbfbf" d="M1008.439986 837.569172c0 31.027137-12.411629 74.466869-68.26299 74.466869-37.231016 0-819.126855 0-856.35787 0-55.851361 0-68.25912-43.439733-68.25912-74.466869 0-105.494006 93.082377-254.423874 260.627754-254.423874 0 0 49.647482 80.670749 235.812237 80.670749s235.808366-80.670749 235.808366-80.670749C915.357609 583.145297 1008.439986 732.075166 1008.439986 837.569172zM517.460803-1.0e-06c-143.812539 0-260.394576 130.324036-260.394576 291.086943s116.582037 291.086943 260.394576 291.086943 260.394576-130.324036 260.394576-291.086943S661.273342-1.0e-06 517.460803-1.0e-06z" /></svg>