<?xml version="1.0" standalone="no"?><!DOCTYPE svg PUBLIC "-//W3C//DTD SVG 1.1//EN" "http://www.w3.org/Graphics/SVG/1.1/DTD/svg11.dtd"><svg class="icon" width="55px" height="55.00px" viewBox="0 0 1024 1024" version="1.1" xmlns="http://www.w3.org/2000/svg"><path fill="#bfbfbf" d="M818.1 138.4h-602c-17.7 0-32-14.3-32-32s14.3-32 32-32h602c17.7 0 32 14.3 32 32s-14.3 32-32 32zM843 529L539.9 176c-12-13.9-33.5-13.9-45.5 0L191.2 529c-16.7 19.5-2.9 49.5 22.8 49.5h143.1v303.3c0 35.3 28.7 64 64 64h192c35.3 0 64-28.7 64-64V578.6h143.2c25.6 0 39.4-30.1 22.7-49.6z" /></svg>