<?xml version="1.0" standalone="no"?><!DOCTYPE svg PUBLIC "-//W3C//DTD SVG 1.1//EN" "http://www.w3.org/Graphics/SVG/1.1/DTD/svg11.dtd"><svg t="1557907756380" class="icon" style="" viewBox="0 0 1085 1024" version="1.1" xmlns="http://www.w3.org/2000/svg" p-id="734" xmlns:xlink="http://www.w3.org/1999/xlink" width="317.87109375" height="300"><defs><style type="text/css"></style></defs><path d="M1018.0827712 277.5373984a38.84971307 38.84971307 0 0 1-39.06797013-39.06797013v-65.47704427c0-71.58823573-52.59989227-130.95408853-116.98565227-130.95408853H160.9882592c-64.38576 0-116.98565227 58.49282667-116.98565333 130.95408853v676.1596128c0 71.58823573 52.59989227 130.95408853 116.98565333 130.95408853h155.83536533a39.06797013 39.06797013 0 1 1 0 77.9176832H160.9882592C53.16939307 1057.15074133-34.13333333 963.73682453-34.13333333 849.1519968V173.8654112C-34.13333333 59.28058347 53.16939307-34.13333333 160.9882592-34.13333333h701.0408896C969.84801493-34.13333333 1057.15074133 59.28058347 1057.15074133 173.8654112v65.47704427a38.84971307 38.84971307 0 0 1-39.06797013 38.19494293zM122.3568032 550.79493013A38.84971307 38.84971307 0 0 1 162.29780053 511.508704h233.53479147a39.06797013 39.06797013 0 1 1 0 77.9176832H162.29780053a39.06797013 39.06797013 0 0 1-39.94099733-38.63145707z m0-234.40781866A38.84971307 38.84971307 0 0 1 162.29780053 277.5373984h311.01596054a39.06797013 39.06797013 0 1 1 0 77.9176832H162.29780053a38.84971307 38.84971307 0 0 1-39.94099733-39.06797013z" fill="#d0d0d0" p-id="735"></path><path d="M783.89320853 429.00762773h20.07962774V391.467456h38.19494186v-20.29788373H803.97283627v-37.5401728h-20.07962774v37.5401728h-38.19494186v20.29788373h38.19494186v37.54017173z" fill="#d0d0d0" p-id="736"></path><path d="M929.6887616 750.28165973A240.082496 240.082496 0 0 0 981.85213973 664.28847467a92.10437547 92.10437547 0 0 0 36.0123744-61.11190827 78.35419627 78.35419627 0 0 0-14.6232064-65.47704427v-205.16140693l-19.20659946-8.51201493a474.7085728 474.7085728 0 0 0-60.67539414-25.31779094 409.44978453 409.44978453 0 0 0-132.48188693-25.97256106h-1.5277984a396.13611947 396.13611947 0 0 0-187.7008608 51.290352l-17.02403093 10.03981333v209.3082848a80.75502187 80.75502187 0 0 0-10.47632747 60.02062507A91.44960533 91.44960533 0 0 0 608.4147296 664.28847467a234.18956267 234.18956267 0 0 0 53.9094336 86.21144106c-117.4221664 30.9924672-187.7008608 107.164096-187.7008608 224.14974934 2.18256853 48.67126933 30.9924672 82.71933333 77.69942613 82.71933333h492.60563094c46.92521493 0 75.5168576-34.04806293 77.69942613-80.75502187 0-120.69601813-72.0247488-197.30416107-192.939024-226.3323168z m-140.3391328-443.49784853a444.37087467 444.37087467 0 0 1 178.0975616 46.925216v151.0337152l-1.30954133-1.52779733c-45.17916053-43.6513632-87.3027264-53.2546624-167.83949014-53.0364064-74.86208747 0-136.4105088 18.55182933-174.60545173 54.12769066-1.52779733 1.30954133-2.6190816 2.83733867-4.14688 4.365136v-154.96233813a365.1436512 365.1436512 0 0 1 169.8038016-46.925216zM638.3159136 642.46279253a54.1276896 54.1276896 0 0 1-29.0281568-43.65136213c-6.32944747-36.8854016 17.242288-45.83393067 17.24228907-45.83393173a13.09540907 13.09540907 0 0 1 5.01990613 3.71036586 72.46126293 72.46126293 0 0 1 13.53192213-23.35347946h1.30954134a117.85868053 117.85868053 0 0 1 30.7742112-21.82568107 253.8326752 253.8326752 0 0 1 116.7673952-24.66301973 347.9013632 347.9013632 0 0 1 85.12015786 5.45642026 140.33913173 140.33913173 0 0 1 29.68292694 11.78586774l2.83733866 1.52779733a146.4503232 146.4503232 0 0 1 30.11944107 22.9169664 73.11603307 73.11603307 0 0 1 18.33357227 29.2464128c2.18256853-3.27385173 4.14688-5.45642027 6.32944746-5.2381632s23.35347947 8.94852907 17.024032 45.83393067a53.47291947 53.47291947 0 0 1-31.21072533 43.6513632c-23.57173653 77.262912-85.33841493 132.48188693-157.36316267 132.48188586s-132.48188693-55.21897387-156.49013653-132.0453728zM795.2425632 808.55622933a175.91499307 175.91499307 0 0 0 53.0364064-8.29375893c-6.7659616 15.71449067-10.47632747 26.6273312-25.97256107 71.80649173-10.03981333 29.68292693-16.1510048 46.48870187-21.82568213 60.8936512l-1.52779733 3.71036587-1.52779734-3.27385173c-6.32944747-14.6232064-12.44063893-31.21072427-21.82568213-61.33016534-14.84146347-43.6513632-18.7700864-55.00071787-24.8812768-69.62392426a180.28012907 180.28012907 0 0 0 44.5243904 6.11119146z m-242.91983467 214.54644907c-26.40907413 0-41.2505376-18.9883424-43.6513632-48.6712704 0-113.9300576 75.73511467-174.60545173 182.4626976-196.4311328 23.1352224 0 52.59989227 130.95408853 81.409792 185.51829227v58.49282666z m492.823888 0H825.1437472v-58.0563136h-1.30954133c28.80989973-53.9094336 58.2745696-185.9548064 81.62804906-185.51829227 106.50932587 21.82568107 183.11746773 80.97327787 183.11746774 194.90333547-2.40082453 29.68292693-17.024032 48.67126933-43.43310614 48.6712704z" fill="#d0d0d0" p-id="737"></path></svg>